<?xml version="1.0" encoding="UTF-8" standalone="no"?>
<svg
   xmlns="http://www.w3.org/2000/svg"
   id="svg4"
   height="60"
   width="40"
   version="1.1"
   viewBox="0 0 40 60">
  <polygon
     transform="matrix(0.23426474,0,0,0.23426474,-10.35696,2.4987001)"
     style="fill:#ffffff;fill-opacity:1"
     points="129.62,49.35 205.07,124.8 214.81,115.07 129.62,29.87 44.42,115.07 54.16,124.8 "
     id="p1" />
  <g
     transform="matrix(0.02492129,0,0,0.02492129,7.5019663,23.815493)"
     id="g821">
    <path
       style="fill:#ffffff;stroke-width:1.27065456"
       d="m 703.9942,54.707763 -60.61023,61.372617 c 200.25521,227.06598 200.00101,573.06523 0.12707,801.78305 l 62.00794,62.89741 C 937.28638,736.41396 936.77808,298.16518 703.9942,54.707763 Z M 562.44327,198.29173 499.8,261.6974 c 122.10991,146.7606 122.10991,363.15308 0.63533,510.93021 l 62.00794,63.02447 c 155.65519,-183.10133 155.90932,-455.7838 0,-637.36035 z m -306.35482,116.6461 c -110.92815,0 -200.890492,91.233 -200.890492,203.81299 0,112.45294 89.962342,203.813 200.890492,203.813 110.92815,0 200.89049,-91.233 200.89049,-203.813 C 456.85188,406.17083 366.88953,314.93783 256.08845,314.93783 Z"
       id="path819" />
  </g>
</svg>
