<?xml version="1.0" encoding="UTF-8" standalone="no"?>
<svg
   xmlns="http://www.w3.org/2000/svg"
   height="60"
   width="40"
   viewBox="0 0 40 60"
   version="1.1">
  <polygon
     id="p1"
     points="129.62,49.35 205.07,124.8 214.81,115.07 129.62,29.87 44.42,115.07 54.16,124.8 "
     style="fill:#ffffff;fill-opacity:1"
     transform="matrix(0.23426474,0,0,0.23426474,-10.35696,2.4987001)" />
  <path
     id="path4"
     d="m 17.421543,54.040831 c -0.440058,0 -0.79656,-0.356503 -0.79656,-0.796561 V 32.026788 c 0,-1.899491 1.548558,-3.44805 3.448049,-3.44805 1.899491,0 3.44805,1.548559 3.44805,3.44805 v 18.565993 c 0,0.440058 -0.356503,0.796561 -0.796561,0.796561 -0.440058,0 -0.79656,-0.356503 -0.79656,-0.796561 V 32.026788 c 0,-1.024945 -0.835554,-1.854928 -1.854929,-1.854928 -1.024945,0 -1.854928,0.835553 -1.854928,1.854928 V 53.24427 c 0,0.440058 -0.356503,0.796561 -0.796561,0.796561 z"
     style="fill:#ffffff;stroke-width:1.25671;stroke-miterlimit:4;stroke-dasharray:none" />
  <path
     id="path6"
     d="m 28.027499,51.389342 c -0.440058,0 -0.796561,-0.356503 -0.796561,-0.796561 V 39.986825 c 0,-1.024945 -0.835553,-1.854928 -1.854928,-1.854928 -1.024945,0 -1.854928,0.835553 -1.854928,1.854928 v 10.605956 c 0,0.440058 -0.356503,0.796561 -0.796561,0.796561 -0.440058,0 -0.79656,-0.356503 -0.79656,-0.796561 V 39.986825 c 0,-1.899491 1.548558,-3.448049 3.448049,-3.448049 1.899491,0 3.44805,1.548558 3.44805,3.448049 v 10.605956 c 0,0.440058 -0.356503,0.796561 -0.796561,0.796561 z"
     style="fill:#ffffff;stroke-width:1.25671;stroke-miterlimit:4;stroke-dasharray:none" />
  <path
     id="path8"
     d="m 33.330477,51.389342 c -0.440058,0 -0.796561,-0.356503 -0.796561,-0.796561 v -7.954467 c 0,-1.024945 -0.835553,-1.854928 -1.854928,-1.854928 -1.024945,0 -1.854928,0.835553 -1.854928,1.854928 v 7.954467 c 0,0.440058 -0.356503,0.796561 -0.796561,0.796561 -0.440058,0 -0.796561,-0.356503 -0.796561,-0.796561 v -7.954467 c 0,-1.899491 1.548559,-3.448049 3.44805,-3.448049 1.899491,0 3.44805,1.548558 3.44805,3.448049 v 7.954467 c 0,0.440058 -0.356503,0.796561 -0.796561,0.796561 z"
     style="fill:#ffffff;stroke-width:1.25671;stroke-miterlimit:4;stroke-dasharray:none" />
  <path
     d="M 35.992188 41.796875 C 34.092696 41.796875 32.544922 43.346603 32.544922 45.246094 L 32.544922 50.548828 C 32.544922 50.988886 32.901739 51.345703 33.341797 51.345703 C 33.781855 51.345703 34.138672 50.988886 34.138672 50.548828 L 34.138672 45.246094 C 34.138672 44.226719 34.967242 43.390625 35.992188 43.390625 C 37.011562 43.390625 37.847656 44.221148 37.847656 45.246094 L 37.847656 58.080078 L 39.441406 58.080078 L 39.441406 45.246094 C 39.441406 43.346603 37.891678 41.796875 35.992188 41.796875 z M 9.4902344 47.111328 C 8.5711258 47.167031 7.7243562 47.578807 7.1171875 48.269531 C 6.5100188 48.960255 6.2021095 49.846517 6.2578125 50.765625 C 6.3190864 51.684734 6.7259486 52.526012 7.3164062 53.027344 L 11.228516 58.080078 L 13.226562 58.080078 L 8.4746094 51.951172 C 7.7059004 51.271589 7.6348698 50.096834 8.3144531 49.328125 C 8.6431041 48.954911 9.0940822 48.732928 9.5898438 48.705078 C 10.074465 48.666086 10.564067 48.833239 10.970703 49.195312 L 16.931641 53.833984 C 17.271433 54.101361 17.771975 54.040675 18.044922 53.695312 C 18.312299 53.349951 18.251612 52.854979 17.90625 52.582031 L 11.984375 47.96875 C 11.293651 47.356011 10.403773 47.061198 9.4902344 47.111328 z "
     style="fill:#ffffff;stroke-width:1.25671;stroke-miterlimit:4;stroke-dasharray:none"
     id="path10" />
  <path
     d="M 15.136796 32.51494 A 6.0512719 6.0512719 0 0 1 13.931093 28.890253 A 6.0512719 6.0512719 0 0 1 19.982365 22.838981 A 6.0512719 6.0512719 0 0 1 26.033637 28.890253 A 6.0512719 6.0512719 0 0 1 24.824919 32.518967 "
     style="fill:none;stroke:#ffffff;stroke-width:2.43;stroke-miterlimit:4;stroke-dasharray:none;stroke-opacity:1"
     id="path839" />
</svg>
