<?xml version="1.0" encoding="UTF-8" standalone="no"?>
<svg
   xmlns="http://www.w3.org/2000/svg"
   viewBox="0 0 40 60"
   version="1.1"
   width="40"
   height="60"
   id="svg90">
  <polygon
     id="p1"
     points="129.62,49.35 205.07,124.8 214.81,115.07 129.62,29.87 44.42,115.07 54.16,124.8 "
     style="fill:#ffffff;fill-opacity:1"
     transform="matrix(0.23426474,0,0,0.23426474,-10.35696,2.4987001)" />
  <path
     d="m 19.65232,24.275889 -0.356116,1.411025 -0.510656,0.08063 c -0.282205,0.04031 -0.685355,0.120945 -0.907087,0.174698 -0.215014,0.05375 -0.396431,0.09407 -0.40987,0.08063 -0.0067,-0.01344 -0.369555,-0.517376 -0.8063,-1.12882 -0.430027,-0.611444 -0.81302,-1.135539 -0.839896,-1.162417 -0.07391,-0.08063 -1.888087,0.799582 -1.847771,0.907089 0.06719,0.188137 0.765985,2.701105 0.752547,2.714543 -0.477061,0.369555 -0.880212,0.705514 -1.101944,0.920527 l -0.282205,0.268767 -1.283361,-0.584569 c -0.705512,-0.315801 -1.303518,-0.577848 -1.337114,-0.577848 -0.0336,0 -0.309081,0.369554 -0.611445,0.813019 l -0.5576904,0.819738 1.0280324,1.014595 1.021314,1.014595 -0.114226,0.302362 c -0.06719,0.16798 -0.194856,0.544253 -0.288924,0.839896 -0.09407,0.295644 -0.181418,0.550971 -0.194856,0.564409 -0.01344,0.02016 -0.665198,0.09407 -1.4513404,0.16798 l -1.4244634,0.141103 -0.04704,0.537533 c -0.02688,0.295643 -0.06047,0.752547 -0.08735,1.014594 l -0.04031,0.477061 1.4110254,0.356117 1.4110264,0.356115 0.04703,0.309082 c 0.04031,0.288924 0.16798,0.980998 0.255329,1.350553 0.0336,0.15454 -0.06047,0.23517 -1.1422584,1.001155 -0.645041,0.456904 -1.169135,0.853335 -1.155697,0.880211 0.235171,0.577854 0.839895,1.746984 0.907087,1.746984 0.05375,0 0.6853554,-0.16798 1.4177454,-0.37627 l 1.323676,-0.36956 0.167979,0.21502 c 0.09407,0.12094 0.362834,0.44346 0.598006,0.71895 l 0.423307,0.4905 -0.577848,1.2632 c -0.315801,0.69879 -0.577849,1.29008 -0.577849,1.32367 0,0.0336 0.369555,0.31581 0.826458,0.62489 l 0.819738,0.55769 1.014595,-1.05491 c 0.974279,-1.01459 1.021314,-1.05491 1.175854,-0.96756 0.08735,0.047 0.477061,0.19485 0.866772,0.32924 l 0.705514,0.24189 0.134383,1.37743 c 0.07391,0.75255 0.154541,1.4043 0.181417,1.44462 0.0336,0.047 0.40315,0.0941 0.907087,0.12094 0.477061,0.0269 0.907089,0.0605 0.96756,0.0806 0.08735,0.0202 0.16798,-0.22845 0.463623,-1.38415 0.315802,-1.2296 0.376274,-1.41774 0.497218,-1.4379 0.08063,-0.0134 0.416589,-0.0739 0.745828,-0.13438 0.335959,-0.0605 0.678636,-0.12094 0.772704,-0.14782 0.161261,-0.0336 0.235172,0.0537 0.97428,1.0885 0.443466,0.61817 0.826457,1.14898 0.846616,1.18258 0.02016,0.0336 0.443464,-0.1411 0.940682,-0.383 0.678637,-0.33595 0.89365,-0.47034 0.880212,-0.55769 -0.01344,-0.0605 -0.188137,-0.69207 -0.389712,-1.39086 l -0.356116,-1.27665 0.215013,-0.16797 c 0.114226,-0.0941 0.430027,-0.35612 0.698793,-0.59129 0.268767,-0.22845 0.503939,-0.41659 0.524096,-0.41659 0.02016,0 0.611444,0.26205 1.316957,0.57785 0.705512,0.32252 1.303518,0.55097 1.330395,0.52409 0.02688,-0.0336 0.288924,-0.40315 0.577849,-0.82645 l 0.524094,-0.75927 -1.028032,-1.02803 -1.028032,-1.028036 0.241889,-0.665197 c 0.134384,-0.362834 0.268767,-0.752546 0.302363,-0.860054 l 0.06047,-0.201575 1.417745,-0.141102 c 0.786142,-0.08063 1.437901,-0.154541 1.451339,-0.167979 0.03359,-0.04032 0.181418,-1.955277 0.154541,-1.982155 -0.01344,-0.02016 -0.645041,-0.188137 -1.411025,-0.382992 l -1.37743,-0.349397 -0.08063,-0.517376 c -0.04031,-0.288924 -0.120944,-0.698793 -0.174697,-0.907087 -0.05375,-0.208294 -0.07391,-0.396431 -0.04703,-0.423308 0.02688,-0.02688 0.537534,-0.389712 1.12882,-0.8063 0.591287,-0.416588 1.101945,-0.779423 1.128821,-0.8063 0.08735,-0.07391 -0.799582,-1.888086 -0.907088,-1.847771 -0.04703,0.02016 -0.631601,0.188136 -1.296799,0.369554 -0.665198,0.188137 -1.256484,0.356116 -1.316957,0.369554 -0.07391,0.02688 -0.16798,-0.04703 -0.275486,-0.215013 -0.09407,-0.141103 -0.362835,-0.463623 -0.591286,-0.712232 l -0.416589,-0.456904 0.577849,-1.269922 c 0.3158,-0.705513 0.577848,-1.303518 0.577848,-1.337114 0,-0.0336 -0.369554,-0.309082 -0.81302,-0.611444 L 26.089283,24.477434 25.06125,25.498747 24.033217,26.52678 23.737574,26.405835 C 23.583033,26.338645 23.193322,26.20426 22.87752,26.103472 L 22.306391,25.922055 22.172007,24.484153 22.037624,23.04625 21.466495,22.99922 c -0.315801,-0.02016 -0.772704,-0.06047 -1.014594,-0.08735 l -0.443465,-0.04031 z m 1.914963,3.742576 c 1.558848,0.322521 3.104256,1.283362 4.105411,2.539846 0.503939,0.631601 1.095225,1.780579 1.2968,2.533125 0.685355,2.539846 -0.02688,5.17376 -1.901524,7.00809 -2.768297,2.70783 -7.26342,2.68767 -9.984684,-0.0336 -1.411024,-1.411029 -2.096379,-3.050506 -2.109818,-5.025941 -0.01344,-1.814176 0.544253,-3.319268 1.740265,-4.730294 1.04147,-1.222889 2.775016,-2.156852 4.43465,-2.385304 0.624882,-0.08735 1.753703,-0.04032 2.4189,0.09407 z"
     id="path10"
     style="fill:#ffffff;stroke-width:0.00671915" />
</svg>
